<svg xmlns="http://www.w3.org/2000/svg" width="255.854" height="255.824" viewBox="0 0 255.854 255.824"><g transform="translate(-2798 -6088)"><ellipse cx="127.917" cy="127.912" rx="127.917" ry="127.912" transform="translate(2798 6088)" fill="#0d1b4c"/><path d="M1248.752,3988.719s-31.664,38.518-5.228,75.854,61.56,29.014,61.56,29.014,1.215-28.937-15.049-59.311S1248.752,3988.719,1248.752,3988.719Z" transform="translate(1748.749 2121.014)" fill="#fdf3f3"/><g transform="translate(2864 6187)"><path d="M326.922,376.473a.683.683,0,0,0-.947.187c-1.234,1.858-3.852,1.957-3.989,1.957h-.062a5.014,5.014,0,0,0-4.513,2.867.687.687,0,0,0,.349.9.73.73,0,0,0,.274.062.674.674,0,0,0,.623-.411,3.677,3.677,0,0,1,3.042-2.045v3.528a2.467,2.467,0,0,1-1.085,1.808,4.529,4.529,0,0,1-2.631.7,4.015,4.015,0,0,1-3.142-1.334,5.438,5.438,0,0,1-1.2-3.765l.012-3.89a5.207,5.207,0,0,1,1.184-3.379,4.033,4.033,0,0,1,3.142-1.334,4.529,4.529,0,0,1,2.631.7,2.463,2.463,0,0,1,1.1,1.92h0v.087a.86.86,0,1,0,1.72,0v-.087h0a3.974,3.974,0,0,0-1.7-2.942,6.256,6.256,0,0,0-3.79-1.1,5.721,5.721,0,0,0-4.376,1.783,6.444,6.444,0,0,0-1.658,4.363h0c0,.125-.012.249-.012.374l.012,3.5H311.9a6.67,6.67,0,0,0,1.671,4.75,5.722,5.722,0,0,0,4.376,1.783,6.256,6.256,0,0,0,3.79-1.1,4.009,4.009,0,0,0,1.658-2.655l.037-3.914a5.946,5.946,0,0,0,3.653-2.369A.638.638,0,0,0,326.922,376.473Z" transform="translate(-270.343 -328.447)" fill="#fff"/><path d="M523.273,83.246h9.562a.773.773,0,1,0,0-1.546h-9.562a.773.773,0,0,0,0,1.546Z" transform="translate(-449.321 -81.358)" fill="#fff"/><path d="M112.373,83.246h9.562a.773.773,0,0,0,0-1.546h-9.562a.777.777,0,0,0-.773.773A.769.769,0,0,0,112.373,83.246Z" transform="translate(-100.926 -81.358)" fill="#fff"/><circle cx="0.773" cy="0.773" r="0.773" transform="translate(83.227 8.096)" fill="#fff"/><circle cx="0.773" cy="0.773" r="0.773" transform="translate(46.476 5.665)" fill="#fff"/><path d="M212.221,87.838h.037c2.9,0,4.2-1.82,5.186-3.516a6.449,6.449,0,0,1,3.216-2.917,4.358,4.358,0,0,1,5.2,2.269.782.782,0,0,0,.673.449h.087a.781.781,0,0,0,.673-.449,4.359,4.359,0,0,1,5.2-2.269,6.5,6.5,0,0,1,3.216,2.917c.985,1.708,2.281,3.516,5.224,3.516h0a4.768,4.768,0,0,0,4.451-3.852,4.23,4.23,0,0,0-2.369-4.949.772.772,0,1,0-.686,1.384,2.718,2.718,0,0,1,1.546,3.216A3.312,3.312,0,0,1,240.92,86.3c-1.932,0-2.855-.972-3.89-2.755a7.9,7.9,0,0,0-4.114-3.628,5.966,5.966,0,0,0-6.346,1.97,5.966,5.966,0,0,0-6.346-1.97,7.9,7.9,0,0,0-4.114,3.628c-1.035,1.783-1.957,2.755-3.852,2.755h-.025a3.079,3.079,0,0,1-2.992-2.294,3.114,3.114,0,0,1,1.633-3.615.772.772,0,1,0-.8-1.321,4.658,4.658,0,0,0-2.331,5.348A4.61,4.61,0,0,0,212.221,87.838Z" transform="translate(-179.317 -78.957)" fill="#fff"/><path d="M360,734h0Z" transform="translate(-312.722 -640.334)" fill="#fff"/><circle cx="0.773" cy="0.773" r="0.773" transform="translate(9.465 8.096)" fill="#fff"/><circle cx="0.773" cy="0.773" r="0.773" transform="translate(7.295 0.354)" fill="#fff"/><circle cx="0.773" cy="0.773" r="0.773" transform="translate(85.969 0.354)" fill="#fff"/><circle cx="0.773" cy="0.773" r="0.773" transform="translate(90.108 56.756)" fill="#fff"/><circle cx="0.773" cy="0.773" r="0.773" transform="translate(87.004 76.87)" fill="#fff"/><circle cx="0.773" cy="0.773" r="0.773" transform="translate(82.042 79.38)" fill="#fff"/><path d="M231.9,96.581a2.082,2.082,0,1,0,2.082-2.082A2.086,2.086,0,0,0,231.9,96.581Zm2.082-.549a.549.549,0,1,1-.548.549A.553.553,0,0,1,233.982,96.033Z" transform="translate(-202.571 -92.561)" fill="#fff"/><path d="M458.982,98.664a2.082,2.082,0,1,0-2.082-2.082A2.086,2.086,0,0,0,458.982,98.664Zm0-2.63a.549.549,0,1,1-.549.549A.553.553,0,0,1,458.982,96.033Z" transform="translate(-395.525 -92.562)" fill="#fff"/><path d="M373.2,119.761a.761.761,0,0,0-.449.985.778.778,0,0,0,.985.461c.125-.05,3.117-1.047,5.411,2.518a.783.783,0,0,0,.648.349.723.723,0,0,0,.411-.125.768.768,0,0,0,.237-1.06C378.05,119.188,374.659,119.225,373.2,119.761Z" transform="translate(-323.017 -114.445)" fill="#fff"/><path d="M291.693,119.822a5.468,5.468,0,0,0-2.531-.187,6.72,6.72,0,0,0-4.7,3.329.766.766,0,0,0,.237,1.06.723.723,0,0,0,.411.125.784.784,0,0,0,.648-.349c2.281-3.565,5.273-2.568,5.41-2.518a.767.767,0,0,0,.985-.461A.781.781,0,0,0,291.693,119.822Z" transform="translate(-247.321 -114.506)" fill="#fff"/><path d="M618.388,88.878l3.753-4.264v6.146a.773.773,0,1,0,1.546,0V82.582a.769.769,0,0,0-1.346-.511l-5.1,5.8a.758.758,0,0,0,.075,1.085A.745.745,0,0,0,618.388,88.878Z" transform="translate(-532.082 -81.455)" fill="#fff"/><path d="M51.46,91.546a.777.777,0,0,0,.773-.773V84.627l3.752,4.264a.769.769,0,1,0,1.159-1.01l-5.1-5.809a.769.769,0,0,0-1.346.511v8.191A.766.766,0,0,0,51.46,91.546Z" transform="translate(-47.618 -81.455)" fill="#fff"/><path d="M487.728,137.423a.768.768,0,0,0-.374,1.459,7.778,7.778,0,0,0,3.329.8,7.053,7.053,0,0,0,4.488-1.708,10.833,10.833,0,0,0,2.606-3.229.762.762,0,0,0-.3-1c-.785-.461-2.144-.748-4.214.511a11.974,11.974,0,0,0-1.97,1.533A5.566,5.566,0,0,1,487.728,137.423Zm4.6-.486.037-.037c.586-.586,2.244-1.945,3.541-2.007a9.682,9.682,0,0,1-1.7,1.895,5.385,5.385,0,0,1-3.59,1.346A8.975,8.975,0,0,0,492.329,136.936Z" transform="translate(-420.504 -126.571)" fill="#fff"/><path d="M148.749,133.81a.762.762,0,0,0-.3,1,10.832,10.832,0,0,0,2.606,3.229,7.025,7.025,0,0,0,4.488,1.708,7.7,7.7,0,0,0,3.329-.8.775.775,0,0,0-.374-1.471,5.532,5.532,0,0,1-3.553-1.621,11.968,11.968,0,0,0-1.97-1.533C150.906,133.075,149.535,133.362,148.749,133.81ZM153.91,137a8.764,8.764,0,0,0,1.708,1.2c-2.693.025-4.476-2.032-5.286-3.241,1.3.062,2.955,1.421,3.541,2.007Z" transform="translate(-130.736 -126.637)" fill="#fff"/><path d="M117.391,216.478a7.061,7.061,0,0,0-2.732-1.417,6.2,6.2,0,0,0,.948-.888,6.835,6.835,0,0,0,.028-8.834.854.854,0,0,0-1.231-.072.878.878,0,0,0-.071,1.246,5.057,5.057,0,0,1-.057,6.514c-1.3,1.546-3.779,1.918-4.515,2-2.222.243-4.713.759-6.058,3.837a4.351,4.351,0,0,0-.368,1.575,3.243,3.243,0,0,0-2.519,5.942,6.451,6.451,0,0,0-.835.916,16,16,0,0,0-15.187-6.443,39,39,0,0,0,11.96-6.156h0a39.829,39.829,0,0,0,11.323-13.444,38.166,38.166,0,0,0,4.26-17.624v-.186a36.373,36.373,0,0,0-2.7-13.444,8.428,8.428,0,0,0,1.628.158,6.265,6.265,0,0,0,5.449-2.849h0a5.57,5.57,0,0,0,.467-4.453.544.544,0,0,0,.014-.158V146.568a.878.878,0,1,0-1.755,0v13.558a7.151,7.151,0,0,0-4.529-1.446c-1.727.014-2.8-.258-3.6-1.632a2.522,2.522,0,0,1,3.567-3.379.871.871,0,0,0,1.189-.344.892.892,0,0,0-.34-1.2,4.274,4.274,0,0,0-5.931,5.8c1.26,2.191,3.171,2.506,5.053,2.506h.071a5.378,5.378,0,0,1,3.439,1.088,4.024,4.024,0,0,1,.821,4.868.05.05,0,0,0-.014.029c-.071.129-1.755,3.021-6.454,1.5a44.573,44.573,0,0,0-4.586-7.674l-.694.53.694-.544-.283-.372c-3.015-5.111.467-10.552,2.279-12.857l1.019-1.174h0a.89.89,0,0,0-.085-1.246.867.867,0,0,0-1.189.043h0c-.028.029-.184.186-.425.458-1.571,1.618-7.714,7.345-13.673,4.352l-.17-.115-.085-.057a39.992,39.992,0,0,0-15.626-5.011c-.651-1.5-1.514-2.649-2.6-2.649s-1.967,1.16-2.633,2.692c-7.035.315-15.782,4.911-16.15,5.1-5.987,3.05-12.158-2.706-13.729-4.324-.241-.272-.41-.43-.425-.458h0a.866.866,0,0,0-1.189-.043.89.89,0,0,0-.085,1.246h0l1.09,1.246a18.712,18.712,0,0,1,2.123,3.35c1.7,3.479,1.727,6.643.1,9.421a37.512,37.512,0,0,0-4.926,8.046c-4.742,1.561-6.44-1.36-6.511-1.489,0-.014-.014-.014-.014-.029a4.023,4.023,0,0,1,.821-4.868A5.378,5.378,0,0,1,35.2,160.4h.014c1.9,0,3.85-.3,5.11-2.505a4.3,4.3,0,0,0-.651-5.168,4.254,4.254,0,0,0-5.279-.63.88.88,0,0,0-.34,1.2.859.859,0,0,0,1.189.344,2.514,2.514,0,0,1,3.185.329,2.553,2.553,0,0,1,.382,3.05c-.778,1.36-1.84,1.632-3.539,1.632h-.057a7.734,7.734,0,0,0-4.034,1.059V146.783a.878.878,0,1,0-1.755,0v14.89a5.715,5.715,0,0,0-.028,5.6,5.471,5.471,0,0,0,2.067,1.99,6.732,6.732,0,0,0,3.383.859,8.962,8.962,0,0,0,1.769-.186,39.293,39.293,0,0,0-2.321,13.487v.157a38.892,38.892,0,0,0,8.606,24.31,39.629,39.629,0,0,0,18.995,12.928,16.266,16.266,0,0,0-2.364-.172,16.047,16.047,0,0,0-12.88,6.5,5.877,5.877,0,0,0-.807-.873,3.273,3.273,0,0,0,1.571-2.792,3.238,3.238,0,0,0-3.213-3.25,3.354,3.354,0,0,0-.934.143,5.033,5.033,0,0,0-.368-1.561c-1.359-3.078-3.836-3.594-6.058-3.837-.736-.086-3.213-.458-4.515-2a4.949,4.949,0,0,1-.1-6.471.889.889,0,0,0-.071-1.246.865.865,0,0,0-1.231.072,6.869,6.869,0,0,0,.028,8.834,5.561,5.561,0,0,0,.948.888,7.261,7.261,0,0,0-2.732,1.417c-2.081,1.732-3.142,4.624-3.171,8.562a.9.9,0,0,0,.4.931.871.871,0,0,0,.453.129.822.822,0,0,0,.184-.029h.014c.028,0,.042-.014.071-.029a.589.589,0,0,0,.142-.057c.014,0,.014-.014.028-.014a1.021,1.021,0,0,0,.354-.344,6.474,6.474,0,0,1,2.9-1.246c4.543-1,5.492-4.109,5.35-5.6a.874.874,0,1,0-1.741.157,2.683,2.683,0,0,1-.071.659c-.212.888-.991,2.42-3.907,3.064h-.028a11.514,11.514,0,0,0-2.307.759c.255-2.548,1.062-4.41,2.435-5.569a6.437,6.437,0,0,1,4.926-1.26.844.844,0,0,0,.269,0,10.382,10.382,0,0,0,1.161.186c2.335.258,3.765.773,4.657,2.792a3.821,3.821,0,0,1-1.4,4.338,3.064,3.064,0,0,1-4.062-.114.869.869,0,0,0-1.231.114.893.893,0,0,0,.113,1.246,5.137,5.137,0,0,0,2.689,1.2,10.731,10.731,0,0,0-2.406,2.921c-1.189,2.076-2.151,3.193-3.751,3.207v-6.2a.878.878,0,1,0-1.755,0v7.187a.89.89,0,0,0,.51.8.922.922,0,0,0,.538.2H50.909a.885.885,0,0,0,.736-.4.94.94,0,0,0,.255-.43,7.05,7.05,0,0,1,13.39-.945H63.421a5.049,5.049,0,0,0-4.685-3.178,5.114,5.114,0,0,0-4.9,3.78.9.9,0,0,0,.609,1.088.882.882,0,0,0,1.076-.616,3.3,3.3,0,0,1,5.9-1.074h-.51a.888.888,0,0,0,0,1.775h1.769c.028,0,.071.014.1.014a.273.273,0,0,0,.113-.014h3.51a.887.887,0,0,0,.878-.888.4.4,0,0,0-.014-.129,1.111,1.111,0,0,0-.014-.372,8.8,8.8,0,0,0-16.928-.387H45.757a14.922,14.922,0,0,1,1.486-3.322c.042-.057.071-.115.113-.172A14.367,14.367,0,0,1,59.5,222.448a14.2,14.2,0,0,1,8.252,2.634.715.715,0,0,0,.212.1c.368.444.736.916,1.09,1.4.085.115.156.229.241.344-.085,1.818.892,3.722,2.916,5.67.071.215.142.4.184.544v.186a.887.887,0,0,0,.878.888.853.853,0,0,0,.835-.659h0c0-.014.127-.444.382-1.16,1.826-1.8,2.732-3.565,2.718-5.269.113-.172.241-.358.368-.53.4-.544.807-1.074,1.231-1.575a14.121,14.121,0,0,1,8.167-2.577A14.371,14.371,0,0,1,100.7,232.685H96.131a8.8,8.8,0,0,0-16.928.387.74.74,0,0,0,0,.43v.072a.887.887,0,0,0,.878.888h7.672a.888.888,0,0,0,0-1.775H84.964A3.307,3.307,0,0,1,90.88,233.8a.865.865,0,0,0,.849.659,1.088,1.088,0,0,0,.212-.029.89.89,0,0,0,.637-1.074,5.05,5.05,0,0,0-9.6-.673H81.213a7.05,7.05,0,0,1,13.39.945,1.353,1.353,0,0,0,.085.215.872.872,0,0,0,.835.616h20.764a.887.887,0,0,0,.878-.888v-.286a1.574,1.574,0,0,0,.014-.258.053.053,0,0,0-.014-.043v-6.715a.878.878,0,1,0-1.755,0v6.013c-1.472-.115-2.392-1.217-3.524-3.193a11.217,11.217,0,0,0-2.265-2.792,5.145,5.145,0,0,0,2.222-1.131.893.893,0,0,0,.113-1.246.869.869,0,0,0-1.231-.115,3.069,3.069,0,0,1-4.062.115,3.827,3.827,0,0,1-1.4-4.338c.892-2.019,2.321-2.548,4.657-2.792a10.4,10.4,0,0,0,1.161-.186.942.942,0,0,0,.283,0,6.484,6.484,0,0,1,4.911,1.26c1.387,1.16,2.208,3.021,2.449,5.584a11.49,11.49,0,0,0-2.321-.773h-.028c-2.9-.644-3.694-2.162-3.907-3.05a2.007,2.007,0,0,1-.071-.659.874.874,0,1,0-1.741-.157c-.142,1.5.807,4.6,5.364,5.6a6.291,6.291,0,0,1,2.93,1.289.014.014,0,0,0,.014.014,1.506,1.506,0,0,0,.127.157c.014.014.028.014.042.029a.659.659,0,0,0,.127.086.107.107,0,0,0,.057.029.5.5,0,0,0,.127.057c.014,0,.042.014.057.014a.83.83,0,0,0,.2.029h0a.571.571,0,0,0,.156-.014.052.052,0,0,0,.042-.014c.042-.014.085-.029.142-.043h.014c.042-.014.071-.043.113-.057l.014-.014a.309.309,0,0,0,.071-.057c.014-.014.042-.029.057-.057l.057-.057c.014-.029.042-.043.057-.072s.028-.043.042-.072.028-.043.042-.072.014-.057.028-.086.014-.057.028-.086a.623.623,0,0,1,.014-.072c0-.029.014-.057.014-.1v-.014C120.575,221.174,119.5,218.239,117.391,216.478ZM43.945,232.671H34.731a12.141,12.141,0,0,0,1.755-2.505c.368-.644,1.727-2.792,3.652-3.35a4.538,4.538,0,0,1,5.435,1.933A17.075,17.075,0,0,0,43.945,232.671Zm.241-7.688a1.475,1.475,0,1,1,1.458-1.475A1.464,1.464,0,0,1,44.186,224.983ZM96.075,213.8h0l.127.158Zm.028-.888a22.328,22.328,0,0,0-17.806,5.8,28.682,28.682,0,0,0-3.68,3.994,4.94,4.94,0,0,0-.467-.3v-2.52c6.695-6.8,13.347-8.834,17.763-9.335a22.609,22.609,0,0,1,6.709.215A32.871,32.871,0,0,1,96.1,212.913Zm10.375-12.484a39.572,39.572,0,0,1-2.9,4.739,19.789,19.789,0,0,0-4.2-.845,33.914,33.914,0,0,0,6.893-16.608,10.507,10.507,0,0,0,4.19-1.518A36.306,36.306,0,0,1,106.478,200.429Zm-5.959-15.978,1.019-.043a4.239,4.239,0,0,0,2.987,3.178,31.97,31.97,0,0,1-7.332,16.636,31.611,31.611,0,0,0-6.737.787A27.635,27.635,0,0,0,100.519,184.451ZM83.888,207.072c-.566.229-.962.415-1.161.5a25.216,25.216,0,0,1-7.5,1.761l23.482-23.752A25.813,25.813,0,0,1,83.888,207.072Zm26.652-23.58c-.028.8-2.194,2.1-4.1,2.42a5.093,5.093,0,0,1-.793.072,2.415,2.415,0,0,1-.962-.2,2.511,2.511,0,0,1,0-4.61,2.415,2.415,0,0,1,.962-.2,5.1,5.1,0,0,1,.793.072c1.911.315,4.062,1.618,4.1,2.405Zm-8.2-22.65.368.5h0a38.607,38.607,0,0,1,7.7,19.414,10.518,10.518,0,0,0-4.147-1.5,33.754,33.754,0,0,0-8.8-18.841,3.2,3.2,0,0,0,.311-1.374,3.266,3.266,0,0,0-.524-1.775l4.02-4.639A10.473,10.473,0,0,0,102.345,160.842ZM90.611,150.806l.184.129.1.057a9.709,9.709,0,0,0,4.459,1.074,12.074,12.074,0,0,0,5.081-1.2L95.9,156.089a3.055,3.055,0,0,0-1.359-.3,3.166,3.166,0,0,0-1.713.5,32.834,32.834,0,0,0-15.485-6.2A28.992,28.992,0,0,0,76.5,146.1,38.966,38.966,0,0,1,90.611,150.806Zm5.407,8.232a1.5,1.5,0,0,1-1,1.4,1.578,1.578,0,0,1-.453.072h-.142a1.45,1.45,0,0,1-1.288-1.188,1.774,1.774,0,0,1-.028-.272,1.962,1.962,0,0,1,.028-.286,1.466,1.466,0,0,1,1.331-1.188h.184a1.484,1.484,0,0,1,1.345,1.145,1.426,1.426,0,0,1,.028.243C96,158.981,96.018,159.01,96.018,159.038Zm-18.6-7.144a31.145,31.145,0,0,1,14.253,5.741,3.159,3.159,0,0,0-.326,1.417,3.23,3.23,0,0,0,.51,1.747l-7.049,8.132a.88.88,0,0,0,.665,1.46.9.9,0,0,0,.665-.3l7.035-8.118a3.065,3.065,0,0,0,1.4.329,3.129,3.129,0,0,0,1.741-.53,32,32,0,0,1,8.224,17.61,4.257,4.257,0,0,0-3,3.264l-1,.043a27.666,27.666,0,0,0-7.091-17.639.865.865,0,0,0-1.231-.057.89.89,0,0,0-.057,1.246,25.906,25.906,0,0,1,6.582,15.405l-9.413-9.492a.864.864,0,0,0-1.231,0,.889.889,0,0,0,0,1.246L98.2,183.621l-24.911,25.2-24.911-25.2L58.4,173.484a.889.889,0,0,0,0-1.246.864.864,0,0,0-1.231,0l-9.3,9.406a25.877,25.877,0,0,1,7.785-16.636l4.388,5.068a.857.857,0,0,0,.665.3.912.912,0,0,0,.58-.215.892.892,0,0,0,.085-1.246l-4.4-5.083a25.2,25.2,0,0,1,14.381-5.927l-7.473,7.488a.889.889,0,0,0,0,1.246.873.873,0,0,0,.623.258.9.9,0,0,0,.623-.258l8.209-8.218,7.969,8.061a.864.864,0,0,0,1.231,0,.889.889,0,0,0,0-1.246l-7.247-7.33a25.112,25.112,0,0,1,12.484,4.453.875.875,0,0,0,1.217-.229.9.9,0,0,0-.226-1.231,26.788,26.788,0,0,0-14.55-4.811v-.63A4.337,4.337,0,0,0,77.42,151.894ZM51.843,162.532a3.124,3.124,0,0,0,1.373-.315l1.26,1.46a27.666,27.666,0,0,0-8.436,19l-.708-.043a4.252,4.252,0,0,0-3.284-3.336,31.944,31.944,0,0,1,8-17.309A3.247,3.247,0,0,0,51.843,162.532ZM50.385,159.3a.956.956,0,0,1,.014-.2c0-.043.014-.072.014-.115a1.452,1.452,0,0,1,1.316-1.16h.1a1.459,1.459,0,0,1,1.4,1.088,1.822,1.822,0,0,1,.057.387,2.16,2.16,0,0,1-.028.3,1.452,1.452,0,0,1-1.316,1.16h-.113a1.55,1.55,0,0,1-.524-.1A1.473,1.473,0,0,1,50.385,159.3Zm-5.067,25.112.722.043a27.65,27.65,0,0,0,10.092,20.588,32.068,32.068,0,0,0-6.766-.816,32,32,0,0,1-7.318-16.565A4.25,4.25,0,0,0,45.318,184.408Zm2.534,1.174,23.482,23.752A25.692,25.692,0,0,1,47.852,185.582ZM70.88,149.933c.382-2.677,1.684-6.257,2.364-6.543.778.3,1.982,4.009,2.35,6.529a9.94,9.94,0,0,1,.113,1.332,2.249,2.249,0,0,1-.042.444,2.471,2.471,0,0,1-4.869,0,2.356,2.356,0,0,1-.042-.444A12.458,12.458,0,0,1,70.88,149.933Zm1.529,5.512v.616a26.975,26.975,0,0,0-16.617,6.428l-1.246-1.446a3.254,3.254,0,0,0,.524-1.761,3.319,3.319,0,0,0-.368-1.5A31.218,31.218,0,0,1,69.1,151.894,4.2,4.2,0,0,0,72.409,155.445ZM50.8,152.066a9.809,9.809,0,0,0,4.473-1.074c.085-.043,8.167-4.3,14.706-4.868a28.848,28.848,0,0,0-.849,3.98,32.845,32.845,0,0,0-15.669,6.385,3.153,3.153,0,0,0-2.987-.129l-4.756-5.483A12.318,12.318,0,0,0,50.8,152.066Zm-7.063,8.862.071-.1a10.591,10.591,0,0,0,1.1-8.218l4.246,4.911a3.244,3.244,0,0,0-.241,3.092,33.741,33.741,0,0,0-8.634,18.669,11.642,11.642,0,0,0-4.19,1.561A34.566,34.566,0,0,1,43.733,160.928Zm-7.714,22.535c.028-.83,2.307-1.976,4.1-2.348a5.2,5.2,0,0,1,1.076-.129,2.171,2.171,0,0,1,.679.1,2.508,2.508,0,0,1,0,4.811,2.6,2.6,0,0,1-.679.1,4.985,4.985,0,0,1-1.076-.129c-1.8-.387-4.076-1.532-4.1-2.362ZM36.1,186.1a11.514,11.514,0,0,0,4.19,1.575,33.7,33.7,0,0,0,6.893,16.636,20.21,20.21,0,0,0-4.218.83A36.488,36.488,0,0,1,36.1,186.1Zm8.124,20.7c-.042-.057-.085-.1-.127-.157,4.26-1.188,8.917-.558,12.187.229a38.148,38.148,0,0,1,6.865,2.362l.014-.029a27,27,0,0,0,20.17.014h0l.085-.043c.368-.157.75-.315,1.1-.487a38.827,38.827,0,0,1,5.662-1.833c3.3-.8,7.969-1.432,12.229-.229-.736.916-1.5,1.79-2.321,2.634a22.888,22.888,0,0,0-8.308-.515c-4.444.487-10.984,2.405-17.664,8.648v-1.561a.878.878,0,1,0-1.755,0v1.475c-6.638-6.171-13.149-8.075-17.565-8.562a22.67,22.67,0,0,0-8.379.544C45.686,208.518,44.936,207.673,44.228,206.8Zm3.723,3.98a22.046,22.046,0,0,1,6.794-.229c7.856.888,13.885,5.426,17.664,9.234v2.591a4.045,4.045,0,0,0-.425.272,28.926,28.926,0,0,0-3.638-3.923,22.275,22.275,0,0,0-17.862-5.8v.014C49.607,212.255,48.758,211.539,47.951,210.78Zm21.981,14.031a22.5,22.5,0,0,0-5.279-4.982l.014-.043a.409.409,0,0,0-.127-.029,20.851,20.851,0,0,0-8.478-3.221,36.7,36.7,0,0,1-3.369-2A20.3,20.3,0,0,1,67.144,220a26.215,26.215,0,0,1,3.51,3.808A5.813,5.813,0,0,0,69.932,224.811Zm4.232,5.369c-.212.258-.439.515-.694.773a2.537,2.537,0,0,1-.2.186l-.014.014-.014.014v-.029a.656.656,0,0,1-.1-.1,9.828,9.828,0,0,1-.75-.816,4.538,4.538,0,0,1-1.33-3.465,1.679,1.679,0,0,1,.057-.258,3.384,3.384,0,0,1,.58-1.2,4.974,4.974,0,0,1,.694-.745,7.1,7.1,0,0,1,.609-.472c.085-.057.156-.1.226-.143a.014.014,0,0,0,.014-.014h.014c.1.057.2.129.326.215a6.236,6.236,0,0,1,.566.444,4.9,4.9,0,0,1,.722.8,3.258,3.258,0,0,1,.552,1.26.268.268,0,0,0,.028.1A4.547,4.547,0,0,1,74.164,230.18Zm3.454-6.457a.379.379,0,0,0-.071.086c-.326.372-.623.744-.892,1.1a6.765,6.765,0,0,0-.708-1.017,26.956,26.956,0,0,1,3.567-3.88,20.329,20.329,0,0,1,14.366-5.483,37.285,37.285,0,0,1-3.4,2.019A21.037,21.037,0,0,0,77.618,223.723Zm24.7-1.689a1.475,1.475,0,1,1-1.458,1.475A1.464,1.464,0,0,1,102.317,222.033Zm4.416,4.6c1.925.573,3.284,2.706,3.652,3.35a10.919,10.919,0,0,0,1.953,2.692h-9.78A16.541,16.541,0,0,0,101,228.877,4.943,4.943,0,0,1,106.733,226.629Z" transform="translate(-25.981 -133.79)" fill="#fff"/><path d="M69.6,284.994a2.294,2.294,0,1,0,2.294-2.294A2.3,2.3,0,0,0,69.6,284.994Zm3.042,0a.748.748,0,1,1-.748-.748A.75.75,0,0,1,72.642,284.994Z" transform="translate(-64.162 -253.674)" fill="#fff"/><path d="M616.488,284.994a2.294,2.294,0,1,0-2.294,2.294A2.3,2.3,0,0,0,616.488,284.994Zm-3.042,0a.748.748,0,1,1,.748.748A.734.734,0,0,1,613.446,284.994Z" transform="translate(-527.576 -253.674)" fill="#fff"/><path d="M635.936,346.517a.794.794,0,0,0-.848.175,4.03,4.03,0,0,1-2.693,1h-.025a.778.778,0,0,0-.773.736.767.767,0,0,0,.736.8,6.189,6.189,0,0,0,2.543-.536v12.579a.773.773,0,0,0,1.546,0V347.228A.792.792,0,0,0,635.936,346.517Z" transform="translate(-544.818 -307.638)" fill="#fff"/><path d="M50.358,362.038a.777.777,0,0,0,.773-.773V348.686a6.189,6.189,0,0,0,2.543.536.767.767,0,0,0-.062-1.533,4.048,4.048,0,0,1-2.693-1,.789.789,0,0,0-.848-.175.762.762,0,0,0-.474.711v14.05A.748.748,0,0,0,50.358,362.038Z" transform="translate(-46.653 -307.638)" fill="#fff"/><path d="M625.433,568.873a.777.777,0,0,0-.773-.773h-4.987a.773.773,0,0,0,0,1.546h4.987A.769.769,0,0,0,625.433,568.873Z" transform="translate(-533.704 -498.72)" fill="#fff"/><path d="M610.893,587.146a.773.773,0,1,0,0-1.546h-1.92a.773.773,0,1,0,0,1.546Z" transform="translate(-524.337 -513.738)" fill="#fff"/><path d="M600.508,603.973a.777.777,0,0,0-.773-.773h-4.762a.773.773,0,0,0,0,1.546h4.762A.769.769,0,0,0,600.508,603.973Z" transform="translate(-512.083 -528.841)" fill="#fff"/><path d="M583.573,621.673a.777.777,0,0,0-.773-.773h-3.728a.773.773,0,1,0,0,1.546H582.8A.777.777,0,0,0,583.573,621.673Z" transform="translate(-498.165 -544.031)" fill="#fff"/><path d="M559.673,638.6a.773.773,0,1,0,0,1.546h2.119a.773.773,0,0,0,0-1.546Z" transform="translate(-484.363 -559.22)" fill="#fff"/><path d="M640.153,532.8h-2.78a.773.773,0,1,0,0,1.546h2.78a.773.773,0,1,0,0-1.546Z" transform="translate(-549.197 -468.427)" fill="#fff"/><path d="M632.45,550.5h-3.877a.773.773,0,0,0,0,1.546h3.877a.773.773,0,0,0,0-1.546Z" transform="translate(-541.494 -483.616)" fill="#fff"/><path d="M651.007,497.5h-1.234a.773.773,0,1,0,0,1.546h1.234a.773.773,0,1,0,0-1.546Z" transform="translate(-560.051 -438.134)" fill="#fff"/><path d="M646.368,515.2h-1.895a.773.773,0,1,0,0,1.546h1.895a.773.773,0,0,0,0-1.546Z" transform="translate(-555.412 -453.323)" fill="#fff"/><circle cx="0.773" cy="0.773" r="0.773" transform="translate(2.907 56.799)" fill="#fff"/><circle cx="0.773" cy="0.773" r="0.773" transform="translate(6.024 76.898)" fill="#fff"/><circle cx="0.773" cy="0.773" r="0.773" transform="translate(10.986 79.408)" fill="#fff"/><path d="M49.473,569.846H54.46a.773.773,0,1,0,0-1.546H49.473a.777.777,0,0,0-.773.773A.769.769,0,0,0,49.473,569.846Z" transform="translate(-45.868 -498.891)" fill="#fff"/><path d="M86.693,585.9h-1.92a.773.773,0,0,0,0,1.546h1.92a.773.773,0,0,0,0-1.546Z" transform="translate(-76.767 -513.995)" fill="#fff"/><path d="M80.735,603.5H75.973a.773.773,0,1,0,0,1.546h4.762a.777.777,0,0,0,.773-.773A.769.769,0,0,0,80.735,603.5Z" transform="translate(-69.064 -529.099)" fill="#fff"/><path d="M103.9,621.1h-3.728a.773.773,0,1,0,0,1.546H103.9a.773.773,0,1,0,0-1.546Z" transform="translate(-90.247 -544.202)" fill="#fff"/><path d="M131.7,639.573a.777.777,0,0,0,.773.773h2.119a.773.773,0,0,0,0-1.546h-2.119A.777.777,0,0,0,131.7,639.573Z" transform="translate(-115.352 -559.392)" fill="#fff"/><path d="M49.473,534.546h2.78a.773.773,0,0,0,0-1.546h-2.78a.773.773,0,0,0,0,1.546Z" transform="translate(-45.868 -468.598)" fill="#fff"/><path d="M49.473,552.246H53.35a.773.773,0,1,0,0-1.546H49.473a.773.773,0,1,0,0,1.546Z" transform="translate(-45.868 -483.788)" fill="#fff"/><path d="M49.473,499.246h1.234a.773.773,0,0,0,0-1.546H49.473a.773.773,0,0,0,0,1.546Z" transform="translate(-45.868 -438.305)" fill="#fff"/><path d="M49.473,516.846h1.895a.773.773,0,1,0,0-1.546H49.473a.777.777,0,0,0-.773.773A.769.769,0,0,0,49.473,516.846Z" transform="translate(-45.868 -453.409)" fill="#fff"/><path d="M360,766.925h0c.013-.013,0-.013,0-.025Z" transform="translate(-312.722 -669.133)" fill="#fff"/><path d="M619.055,168.255h0a.772.772,0,0,0,.748-.586,3.348,3.348,0,0,0-.362-2.805,3.87,3.87,0,0,0-2.543-1.508.772.772,0,0,0-.86.6,3.169,3.169,0,0,0,3.017,4.3Zm-.873-2.518a1.527,1.527,0,0,1,.237.835,1.492,1.492,0,0,1-.648-.449,1.521,1.521,0,0,1-.3-.985A1.887,1.887,0,0,1,618.182,165.737Z" transform="translate(-531.079 -152.828)" fill="#fff"/><path d="M576.142,102.664a3.87,3.87,0,0,0-2.543-1.508.772.772,0,0,0-.86.6,3.563,3.563,0,0,0,.5,3.129,3.4,3.4,0,0,0,2.506,1.159h0a.772.772,0,0,0,.748-.586A3.289,3.289,0,0,0,576.142,102.664Zm-1.683,1.259a1.521,1.521,0,0,1-.3-.985,1.716,1.716,0,0,1,.711.6,1.526,1.526,0,0,1,.237.835A1.491,1.491,0,0,1,574.459,103.923Z" transform="translate(-493.177 -98.383)" fill="#fff"/><path d="M75.908,163.357a3.9,3.9,0,0,0-2.543,1.508A3.394,3.394,0,0,0,73,167.671a.786.786,0,0,0,.748.586h0a3.4,3.4,0,0,0,2.506-1.159,3.571,3.571,0,0,0,.5-3.129A.761.761,0,0,0,75.908,163.357Zm-.835,2.768a1.459,1.459,0,0,1-.661.449,1.5,1.5,0,0,1,.237-.835,1.887,1.887,0,0,1,.711-.6A1.594,1.594,0,0,1,75.073,166.125Z" transform="translate(-67.017 -152.83)" fill="#fff"/><path d="M118.308,101.157a3.9,3.9,0,0,0-2.543,1.508,3.394,3.394,0,0,0-.362,2.805.786.786,0,0,0,.748.586h0a3.4,3.4,0,0,0,2.506-1.159,3.571,3.571,0,0,0,.5-3.129A.769.769,0,0,0,118.308,101.157Zm-.848,2.768a1.46,1.46,0,0,1-.661.449,1.5,1.5,0,0,1,.237-.835,1.887,1.887,0,0,1,.711-.6A1.518,1.518,0,0,1,117.46,103.925Z" transform="translate(-104.131 -98.384)" fill="#fff"/><path d="M517.416,307.048a.768.768,0,0,0,.76.686h.087a.772.772,0,0,0,.673-.86,21.862,21.862,0,0,0-5.573-11.694.767.767,0,0,0-1.1,1.072A20.66,20.66,0,0,1,517.416,307.048Z" transform="translate(-442.511 -263.763)" fill="#fff"/><path d="M154.264,307.689h.087a.759.759,0,0,0,.76-.686,20.661,20.661,0,0,1,5.136-10.784.768.768,0,0,0-.012-1.085.756.756,0,0,0-1.085.012,21.958,21.958,0,0,0-5.573,11.694A.779.779,0,0,0,154.264,307.689Z" transform="translate(-135.321 -263.732)" fill="#fff"/></g><path d="M93.444,10.244a27.733,27.733,0,0,1,27.733,27.733V93.444a27.733,27.733,0,0,1-27.733,27.733H37.978A27.733,27.733,0,0,1,10.244,93.444V37.978A27.733,27.733,0,0,1,37.978,10.244ZM37.978,1A36.978,36.978,0,0,0,1,37.978V93.444a36.978,36.978,0,0,0,36.978,36.978H93.444a36.978,36.978,0,0,0,36.978-36.978V37.978A36.978,36.978,0,0,0,93.444,1Z" transform="translate(2845 6172)" fill="#ff8387"/></g></svg>